<svg width="25" height="25" viewBox="0 0 25 25" fill="none" xmlns="http://www.w3.org/2000/svg">
<path d="M9.92383 6.99056V20.8516M15.9238 3.35156V17.3516M3.92383 9.06156C3.92383 7.58756 3.92383 6.85156 4.31683 6.42156C4.45591 6.26859 4.62512 6.14603 4.81383 6.06156C5.34583 5.82556 6.04483 6.05856 7.44283 6.52456C8.50983 6.88056 9.04283 7.05856 9.58283 7.03956C9.78092 7.03305 9.97789 7.00692 10.1708 6.96156C10.6958 6.83656 11.1638 6.52456 12.0998 5.90156L13.4818 4.97956C14.6818 4.17956 15.2808 3.77956 15.9688 3.68856C16.6568 3.59556 17.3408 3.82356 18.7078 4.27956L19.8728 4.66756C20.8628 4.99756 21.3578 5.16256 21.6408 5.55556C21.9238 5.94856 21.9238 6.47156 21.9238 7.51356V15.6426C21.9238 17.1156 21.9238 17.8526 21.5308 18.2826C21.3915 18.4348 21.2224 18.5567 21.0338 18.6406C20.5018 18.8776 19.8028 18.6446 18.4048 18.1786C17.3378 17.8226 16.8048 17.6446 16.2648 17.6636C16.0667 17.6701 15.8698 17.6962 15.6768 17.7416C15.1518 17.8666 14.6838 18.1786 13.7478 18.8016L12.3658 19.7236C11.1658 20.5236 10.5668 20.9236 9.87883 21.0146C9.19083 21.1076 8.50683 20.8796 7.13983 20.4236L5.97483 20.0356C4.98483 19.7056 4.48983 19.5406 4.20683 19.1476C3.92383 18.7546 3.92383 18.2316 3.92383 17.1896V9.06156Z" stroke="#DB4028" stroke-width="1.8"/>
</svg>
