<svg width="27" height="27" viewBox="0 0 27 27" fill="none" xmlns="http://www.w3.org/2000/svg">
<path d="M8.17383 12.9766C8.17383 10.5021 8.17383 9.26394 8.94295 8.49569C9.7112 7.72656 10.9493 7.72656 13.4238 7.72656H16.0488C18.5233 7.72656 19.7615 7.72656 20.5297 8.49569C21.2988 9.26394 21.2988 10.5021 21.2988 12.9766V17.3516C21.2988 19.8261 21.2988 21.0642 20.5297 21.8324C19.7615 22.6016 18.5233 22.6016 16.0488 22.6016H13.4238C10.9493 22.6016 9.7112 22.6016 8.94295 21.8324C8.17383 21.0642 8.17383 19.8261 8.17383 17.3516V12.9766Z" stroke="#979797" stroke-width="1.5"/>
<path d="M8.17383 19.9766C7.47763 19.9766 6.80996 19.7 6.31767 19.2077C5.82539 18.7154 5.54883 18.0478 5.54883 17.3516V12.1016C5.54883 8.80194 5.54883 7.15169 6.57433 6.12706C7.59983 5.10244 9.2492 5.10156 12.5488 5.10156H16.0488C16.745 5.10156 17.4127 5.37812 17.905 5.87041C18.3973 6.36269 18.6738 7.03037 18.6738 7.72656" stroke="#979797" stroke-width="1.5"/>
</svg>
