<svg width="25" height="25" viewBox="0 0 25 25" fill="none" xmlns="http://www.w3.org/2000/svg">
<path d="M4.92383 20.3516C4.37383 20.3516 3.90316 20.1559 3.51183 19.7646C3.12049 19.3732 2.92449 18.9022 2.92383 18.3516V6.35156C2.92383 5.80156 3.11983 5.3309 3.51183 4.93956C3.90383 4.54823 4.37449 4.35223 4.92383 4.35156H20.9238C21.4738 4.35156 21.9448 4.54756 22.3368 4.93956C22.7288 5.33156 22.9245 5.80223 22.9238 6.35156V18.3516C22.9238 18.9016 22.7282 19.3726 22.3368 19.7646C21.9455 20.1566 21.4745 20.3522 20.9238 20.3516H4.92383ZM12.9238 13.3516L4.92383 8.35156V18.3516H20.9238V8.35156L12.9238 13.3516ZM12.9238 11.3516L20.9238 6.35156H4.92383L12.9238 11.3516ZM4.92383 8.35156V6.35156V18.3516V8.35156Z" fill="#DB4028"/>
</svg>
