<svg width="25" height="25" viewBox="0 0 25 25" fill="none" xmlns="http://www.w3.org/2000/svg">
<path d="M9.17383 3.35156C8.57709 3.35156 8.00479 3.58862 7.58284 4.01057C7.16088 4.43253 6.92383 5.00483 6.92383 5.60156V9.35156C6.12818 9.35156 5.36512 9.66763 4.80251 10.2302C4.2399 10.7929 3.92383 11.5559 3.92383 12.3516V19.1016C3.92383 19.6983 4.16088 20.2706 4.58284 20.6926C5.00479 21.1145 5.57709 21.3516 6.17383 21.3516H15.1738C14.8406 20.9077 14.61 20.3954 14.4988 19.8516H6.17383C5.97492 19.8516 5.78415 19.7725 5.6435 19.6319C5.50285 19.4912 5.42383 19.3005 5.42383 19.1016V12.3516C5.42383 11.9537 5.58186 11.5722 5.86317 11.2909C6.14447 11.0096 6.526 10.8516 6.92383 10.8516H14.4988C14.6113 10.2966 14.8453 9.78656 15.1738 9.35156H8.42383V5.60156C8.42383 5.40265 8.50285 5.21188 8.6435 5.07123C8.78415 4.93058 8.97492 4.85156 9.17383 4.85156H16.6738C16.8727 4.85156 17.0635 4.93058 17.2042 5.07123C17.3448 5.21188 17.4238 5.40265 17.4238 5.60156V7.92656C17.6668 7.87656 17.9168 7.85156 18.1738 7.85156H18.9238V5.60156C18.9238 5.00483 18.6868 4.43253 18.2648 4.01057C17.8429 3.58862 17.2706 3.35156 16.6738 3.35156H9.17383ZM18.1738 9.35156C17.5771 9.35156 17.0048 9.58861 16.5828 10.0106C16.1609 10.4325 15.9238 11.0048 15.9238 11.6016V19.1016C15.9238 19.6983 16.1609 20.2706 16.5828 20.6926C17.0048 21.1145 17.5771 21.3516 18.1738 21.3516H19.6738C20.2706 21.3516 20.8429 21.1145 21.2648 20.6926C21.6868 20.2706 21.9238 19.6983 21.9238 19.1016V11.6016C21.9238 11.0048 21.6868 10.4325 21.2648 10.0106C20.8429 9.58861 20.2706 9.35156 19.6738 9.35156H18.1738ZM17.4238 11.6016C17.4238 11.4026 17.5028 11.2119 17.6435 11.0712C17.7842 10.9306 17.9749 10.8516 18.1738 10.8516H19.6738C19.8727 10.8516 20.0635 10.9306 20.2042 11.0712C20.3448 11.2119 20.4238 11.4026 20.4238 11.6016V19.1016C20.4238 19.3005 20.3448 19.4912 20.2042 19.6319C20.0635 19.7725 19.8727 19.8516 19.6738 19.8516H18.1738C17.9749 19.8516 17.7842 19.7725 17.6435 19.6319C17.5028 19.4912 17.4238 19.3005 17.4238 19.1016V11.6016ZM8.42383 13.1016C8.42383 13.3005 8.34481 13.4912 8.20416 13.6319C8.06351 13.7725 7.87274 13.8516 7.67383 13.8516C7.47492 13.8516 7.28415 13.7725 7.1435 13.6319C7.00285 13.4912 6.92383 13.3005 6.92383 13.1016C6.92383 12.9026 7.00285 12.7119 7.1435 12.5712C7.28415 12.4306 7.47492 12.3516 7.67383 12.3516C7.87274 12.3516 8.06351 12.4306 8.20416 12.5712C8.34481 12.7119 8.42383 12.9026 8.42383 13.1016ZM7.67383 16.8516C7.87274 16.8516 8.06351 16.7725 8.20416 16.6319C8.34481 16.4912 8.42383 16.3005 8.42383 16.1016C8.42383 15.9026 8.34481 15.7119 8.20416 15.5712C8.06351 15.4306 7.87274 15.3516 7.67383 15.3516C7.47492 15.3516 7.28415 15.4306 7.1435 15.5712C7.00285 15.7119 6.92383 15.9026 6.92383 16.1016C6.92383 16.3005 7.00285 16.4912 7.1435 16.6319C7.28415 16.7725 7.47492 16.8516 7.67383 16.8516ZM11.4238 13.1016C11.4238 13.3005 11.3448 13.4912 11.2042 13.6319C11.0635 13.7725 10.8727 13.8516 10.6738 13.8516C10.4749 13.8516 10.2842 13.7725 10.1435 13.6319C10.0028 13.4912 9.92383 13.3005 9.92383 13.1016C9.92383 12.9026 10.0028 12.7119 10.1435 12.5712C10.2842 12.4306 10.4749 12.3516 10.6738 12.3516C10.8727 12.3516 11.0635 12.4306 11.2042 12.5712C11.3448 12.7119 11.4238 12.9026 11.4238 13.1016ZM10.6738 16.8516C10.8727 16.8516 11.0635 16.7725 11.2042 16.6319C11.3448 16.4912 11.4238 16.3005 11.4238 16.1016C11.4238 15.9026 11.3448 15.7119 11.2042 15.5712C11.0635 15.4306 10.8727 15.3516 10.6738 15.3516C10.4749 15.3516 10.2842 15.4306 10.1435 15.5712C10.0028 15.7119 9.92383 15.9026 9.92383 16.1016C9.92383 16.3005 10.0028 16.4912 10.1435 16.6319C10.2842 16.7725 10.4749 16.8516 10.6738 16.8516Z" fill="#DB4028" stroke="#DB4028" stroke-width="0.3"/>
</svg>
