<svg width="25" height="25" viewBox="0 0 25 25" fill="none" xmlns="http://www.w3.org/2000/svg">
<path d="M15.9238 7.35156C16.4543 7.35156 16.963 7.56228 17.338 7.93735C17.7131 8.31242 17.9238 8.82113 17.9238 9.35156M15.9238 3.35156C17.5151 3.35156 19.0413 3.9837 20.1665 5.10892C21.2917 6.23414 21.9238 7.76026 21.9238 9.35156M5.92383 4.35156H9.92383L11.9238 9.35156L9.42383 10.8516C10.4948 13.0231 12.2523 14.7806 14.4238 15.8516L15.9238 13.3516L20.9238 15.3516V19.3516C20.9238 19.882 20.7131 20.3907 20.338 20.7658C19.963 21.1408 19.4543 21.3516 18.9238 21.3516C15.0231 21.1145 11.344 19.4581 8.58066 16.6947C5.81733 13.9314 4.16088 10.2523 3.92383 6.35156C3.92383 5.82113 4.13454 5.31242 4.50961 4.93735C4.88469 4.56228 5.3934 4.35156 5.92383 4.35156Z" stroke="#DB4028" stroke-width="2" stroke-linecap="round" stroke-linejoin="round"/>
</svg>
